<mxfile host="app.diagrams.net" agent="Mozilla/5.0 (Windows NT 10.0; Win64; x64) AppleWebKit/537.36 (KHTML, like Gecko) Chrome/128.0.0.0 Safari/537.36 OPR/114.0.0.0" version="24.9.3">
  <diagram name="Página-1" id="csOUmaj2i5kUrGmTa8MK">
    <mxGraphModel dx="1793" dy="1223" grid="0" gridSize="10" guides="1" tooltips="1" connect="1" arrows="1" fold="1" page="0" pageScale="1" pageWidth="827" pageHeight="1169" math="0" shadow="0">
      <root>
        <mxCell id="0" />
        <mxCell id="1" parent="0" />
        <mxCell id="0uR6qXvt8WUA19gHWhxm-4" style="edgeStyle=none;curved=1;rounded=0;orthogonalLoop=1;jettySize=auto;html=1;fontSize=12;startSize=8;endSize=8;" edge="1" parent="1" source="0uR6qXvt8WUA19gHWhxm-9" target="0uR6qXvt8WUA19gHWhxm-2">
          <mxGeometry relative="1" as="geometry">
            <mxPoint x="22" y="-43" as="sourcePoint" />
          </mxGeometry>
        </mxCell>
        <mxCell id="0uR6qXvt8WUA19gHWhxm-6" value="" style="edgeStyle=none;curved=1;rounded=0;orthogonalLoop=1;jettySize=auto;html=1;fontSize=12;startSize=8;endSize=8;" edge="1" parent="1" source="0uR6qXvt8WUA19gHWhxm-2" target="0uR6qXvt8WUA19gHWhxm-5">
          <mxGeometry relative="1" as="geometry" />
        </mxCell>
        <mxCell id="0uR6qXvt8WUA19gHWhxm-8" value="" style="edgeStyle=none;curved=1;rounded=0;orthogonalLoop=1;jettySize=auto;html=1;fontSize=12;startSize=8;endSize=8;" edge="1" parent="1" source="0uR6qXvt8WUA19gHWhxm-2" target="0uR6qXvt8WUA19gHWhxm-12">
          <mxGeometry relative="1" as="geometry">
            <mxPoint x="83.66942148760336" y="138" as="targetPoint" />
          </mxGeometry>
        </mxCell>
        <mxCell id="0uR6qXvt8WUA19gHWhxm-2" value="Cliente&amp;nbsp;" style="rhombus;whiteSpace=wrap;html=1;" vertex="1" parent="1">
          <mxGeometry x="-18" y="7" width="80" height="80" as="geometry" />
        </mxCell>
        <mxCell id="0uR6qXvt8WUA19gHWhxm-11" value="" style="edgeStyle=none;curved=1;rounded=0;orthogonalLoop=1;jettySize=auto;html=1;fontSize=12;startSize=8;endSize=8;" edge="1" parent="1" source="0uR6qXvt8WUA19gHWhxm-5" target="0uR6qXvt8WUA19gHWhxm-10">
          <mxGeometry relative="1" as="geometry" />
        </mxCell>
        <mxCell id="0uR6qXvt8WUA19gHWhxm-5" value="Faz um orçamento gratuito" style="whiteSpace=wrap;html=1;" vertex="1" parent="1">
          <mxGeometry x="-147" y="138" width="120" height="60" as="geometry" />
        </mxCell>
        <mxCell id="0uR6qXvt8WUA19gHWhxm-9" value="Cliente acessa o site" style="ellipse;whiteSpace=wrap;html=1;" vertex="1" parent="1">
          <mxGeometry x="-38" y="-124" width="120" height="80" as="geometry" />
        </mxCell>
        <mxCell id="0uR6qXvt8WUA19gHWhxm-10" value="Proposta enviada com sucesso" style="ellipse;whiteSpace=wrap;html=1;" vertex="1" parent="1">
          <mxGeometry x="-129" y="253" width="80" height="80" as="geometry" />
        </mxCell>
        <mxCell id="0uR6qXvt8WUA19gHWhxm-43" style="edgeStyle=none;curved=1;rounded=0;orthogonalLoop=1;jettySize=auto;html=1;fontSize=12;startSize=8;endSize=8;" edge="1" parent="1" source="0uR6qXvt8WUA19gHWhxm-12" target="0uR6qXvt8WUA19gHWhxm-9">
          <mxGeometry relative="1" as="geometry" />
        </mxCell>
        <mxCell id="0uR6qXvt8WUA19gHWhxm-12" value="Acessa as propostas padrão" style="ellipse;whiteSpace=wrap;html=1;aspect=fixed;" vertex="1" parent="1">
          <mxGeometry x="77" y="126" width="80" height="80" as="geometry" />
        </mxCell>
        <mxCell id="0uR6qXvt8WUA19gHWhxm-15" value="" style="edgeStyle=none;curved=1;rounded=0;orthogonalLoop=1;jettySize=auto;html=1;fontSize=12;startSize=8;endSize=8;fillColor=#f8cecc;strokeColor=#b85450;" edge="1" parent="1" source="0uR6qXvt8WUA19gHWhxm-13" target="0uR6qXvt8WUA19gHWhxm-14">
          <mxGeometry relative="1" as="geometry" />
        </mxCell>
        <mxCell id="0uR6qXvt8WUA19gHWhxm-13" value="Vendedor entra em contato com o cliente&amp;nbsp;" style="ellipse;whiteSpace=wrap;html=1;fillColor=#f8cecc;strokeColor=#b85450;" vertex="1" parent="1">
          <mxGeometry x="361" y="-126" width="120" height="80" as="geometry" />
        </mxCell>
        <mxCell id="0uR6qXvt8WUA19gHWhxm-23" value="" style="edgeStyle=none;curved=1;rounded=0;orthogonalLoop=1;jettySize=auto;html=1;fontSize=12;startSize=8;endSize=8;fillColor=#f8cecc;strokeColor=#b85450;" edge="1" parent="1" source="0uR6qXvt8WUA19gHWhxm-14" target="0uR6qXvt8WUA19gHWhxm-28">
          <mxGeometry relative="1" as="geometry">
            <mxPoint x="502.56521739130426" y="95" as="targetPoint" />
          </mxGeometry>
        </mxCell>
        <mxCell id="0uR6qXvt8WUA19gHWhxm-25" value="" style="edgeStyle=none;curved=1;rounded=0;orthogonalLoop=1;jettySize=auto;html=1;fontSize=12;startSize=8;endSize=8;fillColor=#f8cecc;strokeColor=#b85450;" edge="1" parent="1" source="0uR6qXvt8WUA19gHWhxm-14" target="0uR6qXvt8WUA19gHWhxm-24">
          <mxGeometry relative="1" as="geometry" />
        </mxCell>
        <mxCell id="0uR6qXvt8WUA19gHWhxm-14" value="Por e-mail, whats etc.." style="rhombus;whiteSpace=wrap;html=1;fillColor=#f8cecc;strokeColor=#b85450;" vertex="1" parent="1">
          <mxGeometry x="379" y="-7" width="80" height="80" as="geometry" />
        </mxCell>
        <mxCell id="0uR6qXvt8WUA19gHWhxm-27" value="" style="edgeStyle=none;curved=1;rounded=0;orthogonalLoop=1;jettySize=auto;html=1;fontSize=12;startSize=8;endSize=8;fillColor=#f8cecc;strokeColor=#b85450;" edge="1" parent="1" source="0uR6qXvt8WUA19gHWhxm-24" target="0uR6qXvt8WUA19gHWhxm-26">
          <mxGeometry relative="1" as="geometry" />
        </mxCell>
        <mxCell id="0uR6qXvt8WUA19gHWhxm-24" value="Cliente aceita a proposta e da retorno de confirmação" style="whiteSpace=wrap;html=1;fillColor=#f8cecc;strokeColor=#b85450;" vertex="1" parent="1">
          <mxGeometry x="222" y="98" width="120" height="60" as="geometry" />
        </mxCell>
        <mxCell id="0uR6qXvt8WUA19gHWhxm-26" value="Organiza para efetuar os pagamentos, e enciado e-mail para o mesmo" style="ellipse;whiteSpace=wrap;html=1;fillColor=#f8cecc;strokeColor=#b85450;" vertex="1" parent="1">
          <mxGeometry x="189" y="215" width="181" height="76" as="geometry" />
        </mxCell>
        <mxCell id="0uR6qXvt8WUA19gHWhxm-44" style="edgeStyle=none;curved=1;rounded=0;orthogonalLoop=1;jettySize=auto;html=1;fontSize=12;startSize=8;endSize=8;" edge="1" parent="1" source="0uR6qXvt8WUA19gHWhxm-28" target="0uR6qXvt8WUA19gHWhxm-13">
          <mxGeometry relative="1" as="geometry" />
        </mxCell>
        <mxCell id="0uR6qXvt8WUA19gHWhxm-48" value="" style="edgeStyle=none;curved=1;rounded=0;orthogonalLoop=1;jettySize=auto;html=1;fontSize=12;startSize=8;endSize=8;" edge="1" parent="1" source="0uR6qXvt8WUA19gHWhxm-28" target="0uR6qXvt8WUA19gHWhxm-47">
          <mxGeometry relative="1" as="geometry" />
        </mxCell>
        <mxCell id="0uR6qXvt8WUA19gHWhxm-28" value="cliente recusa a proposta" style="ellipse;whiteSpace=wrap;html=1;aspect=fixed;fillColor=#f8cecc;strokeColor=#b85450;" vertex="1" parent="1">
          <mxGeometry x="459" y="93" width="80" height="80" as="geometry" />
        </mxCell>
        <mxCell id="0uR6qXvt8WUA19gHWhxm-31" style="edgeStyle=none;curved=1;rounded=0;orthogonalLoop=1;jettySize=auto;html=1;entryX=0.5;entryY=0;entryDx=0;entryDy=0;fontSize=12;startSize=8;endSize=8;fillColor=#e1d5e7;strokeColor=#9673a6;" edge="1" parent="1" source="0uR6qXvt8WUA19gHWhxm-29" target="0uR6qXvt8WUA19gHWhxm-30">
          <mxGeometry relative="1" as="geometry" />
        </mxCell>
        <mxCell id="0uR6qXvt8WUA19gHWhxm-29" value="Vendedor faz contato para confirmação do dia" style="ellipse;whiteSpace=wrap;html=1;fillColor=#e1d5e7;strokeColor=#9673a6;" vertex="1" parent="1">
          <mxGeometry x="745" y="-124" width="120" height="80" as="geometry" />
        </mxCell>
        <mxCell id="0uR6qXvt8WUA19gHWhxm-33" value="" style="edgeStyle=none;curved=1;rounded=0;orthogonalLoop=1;jettySize=auto;html=1;fontSize=12;startSize=8;endSize=8;fillColor=#e1d5e7;strokeColor=#9673a6;" edge="1" parent="1" source="0uR6qXvt8WUA19gHWhxm-30" target="0uR6qXvt8WUA19gHWhxm-32">
          <mxGeometry relative="1" as="geometry" />
        </mxCell>
        <mxCell id="0uR6qXvt8WUA19gHWhxm-35" value="" style="edgeStyle=none;curved=1;rounded=0;orthogonalLoop=1;jettySize=auto;html=1;fontSize=12;startSize=8;endSize=8;fillColor=#e1d5e7;strokeColor=#9673a6;" edge="1" parent="1" source="0uR6qXvt8WUA19gHWhxm-30" target="0uR6qXvt8WUA19gHWhxm-34">
          <mxGeometry relative="1" as="geometry" />
        </mxCell>
        <mxCell id="0uR6qXvt8WUA19gHWhxm-30" value="Cliente retorna" style="rhombus;whiteSpace=wrap;html=1;fillColor=#e1d5e7;strokeColor=#9673a6;" vertex="1" parent="1">
          <mxGeometry x="765" y="-4" width="80" height="80" as="geometry" />
        </mxCell>
        <mxCell id="0uR6qXvt8WUA19gHWhxm-38" value="" style="edgeStyle=none;curved=1;rounded=0;orthogonalLoop=1;jettySize=auto;html=1;fontSize=12;startSize=8;endSize=8;fillColor=#e1d5e7;strokeColor=#9673a6;" edge="1" parent="1" source="0uR6qXvt8WUA19gHWhxm-32" target="0uR6qXvt8WUA19gHWhxm-37">
          <mxGeometry relative="1" as="geometry" />
        </mxCell>
        <mxCell id="0uR6qXvt8WUA19gHWhxm-32" value="Confirma a data e efetua pagamento" style="whiteSpace=wrap;html=1;fillColor=#e1d5e7;strokeColor=#9673a6;" vertex="1" parent="1">
          <mxGeometry x="677" y="81" width="120" height="60" as="geometry" />
        </mxCell>
        <mxCell id="0uR6qXvt8WUA19gHWhxm-36" style="edgeStyle=none;curved=1;rounded=0;orthogonalLoop=1;jettySize=auto;html=1;entryX=1;entryY=0.5;entryDx=0;entryDy=0;fontSize=12;startSize=8;endSize=8;fillColor=#e1d5e7;strokeColor=#9673a6;" edge="1" parent="1" source="0uR6qXvt8WUA19gHWhxm-34" target="0uR6qXvt8WUA19gHWhxm-29">
          <mxGeometry relative="1" as="geometry" />
        </mxCell>
        <mxCell id="0uR6qXvt8WUA19gHWhxm-34" value="Reagenda para outra data&amp;nbsp;" style="ellipse;whiteSpace=wrap;html=1;fillColor=#e1d5e7;strokeColor=#9673a6;" vertex="1" parent="1">
          <mxGeometry x="907" y="58" width="80" height="80" as="geometry" />
        </mxCell>
        <mxCell id="0uR6qXvt8WUA19gHWhxm-37" value="Envidado e-mail de confirmação e qual caminhão ira fazer a carga e nome do motorista e numero." style="ellipse;whiteSpace=wrap;html=1;fillColor=#e1d5e7;strokeColor=#9673a6;" vertex="1" parent="1">
          <mxGeometry x="654.5" y="190" width="165" height="110" as="geometry" />
        </mxCell>
        <mxCell id="0uR6qXvt8WUA19gHWhxm-46" style="edgeStyle=none;curved=1;rounded=0;orthogonalLoop=1;jettySize=auto;html=1;fontSize=12;startSize=8;endSize=8;" edge="1" parent="1" source="0uR6qXvt8WUA19gHWhxm-39" target="0uR6qXvt8WUA19gHWhxm-28">
          <mxGeometry relative="1" as="geometry" />
        </mxCell>
        <mxCell id="0uR6qXvt8WUA19gHWhxm-39" value="Comercial entra em contato com os clientes que desistiram ou nãoo retornam&amp;nbsp;" style="ellipse;whiteSpace=wrap;html=1;fillColor=#dae8fc;strokeColor=#6c8ebf;" vertex="1" parent="1">
          <mxGeometry x="232" y="423" width="197" height="80" as="geometry" />
        </mxCell>
        <mxCell id="0uR6qXvt8WUA19gHWhxm-41" value="Manual por alguma das ferramentas(whats, e-mail, etc" style="text;html=1;align=center;verticalAlign=middle;whiteSpace=wrap;rounded=0;fontSize=16;" vertex="1" parent="1">
          <mxGeometry x="308" y="-199" width="217" height="65" as="geometry" />
        </mxCell>
        <mxCell id="0uR6qXvt8WUA19gHWhxm-42" value="Forma manual&amp;nbsp;" style="text;html=1;align=center;verticalAlign=middle;whiteSpace=wrap;rounded=0;fontSize=16;" vertex="1" parent="1">
          <mxGeometry x="162" y="376" width="217" height="65" as="geometry" />
        </mxCell>
        <mxCell id="0uR6qXvt8WUA19gHWhxm-49" style="edgeStyle=none;curved=1;rounded=0;orthogonalLoop=1;jettySize=auto;html=1;exitX=0;exitY=0;exitDx=0;exitDy=0;fontSize=12;startSize=8;endSize=8;" edge="1" parent="1" source="0uR6qXvt8WUA19gHWhxm-47" target="0uR6qXvt8WUA19gHWhxm-24">
          <mxGeometry relative="1" as="geometry" />
        </mxCell>
        <mxCell id="0uR6qXvt8WUA19gHWhxm-50" style="edgeStyle=none;curved=1;rounded=0;orthogonalLoop=1;jettySize=auto;html=1;entryX=1;entryY=1;entryDx=0;entryDy=0;fontSize=12;startSize=8;endSize=8;" edge="1" parent="1" source="0uR6qXvt8WUA19gHWhxm-47" target="0uR6qXvt8WUA19gHWhxm-28">
          <mxGeometry relative="1" as="geometry" />
        </mxCell>
        <mxCell id="0uR6qXvt8WUA19gHWhxm-47" value="cliente" style="rhombus;whiteSpace=wrap;html=1;fillColor=#f8cecc;strokeColor=#b85450;" vertex="1" parent="1">
          <mxGeometry x="459" y="293" width="80" height="80" as="geometry" />
        </mxCell>
      </root>
    </mxGraphModel>
  </diagram>
</mxfile>
